<svg id="svg" version="1.1" xmlns="http://www.w3.org/2000/svg" xmlns:xlink="http://www.w3.org/1999/xlink" width="400" height="400" viewBox="0, 0, 400,400"><g id="svgg"><path id="path0" d="M198.009 133.751 C 197.922 133.832,196.797 134.017,195.508 134.161 C 186.476 135.170,179.122 138.489,173.391 144.141 C 168.053 149.405,166.072 154.131,165.002 164.160 L 164.846 165.625 170.997 165.649 C 174.380 165.661,179.570 165.686,182.529 165.704 C 187.506 165.734,188.427 165.611,188.506 164.909 C 189.295 157.874,192.331 154.256,198.705 152.755 C 200.823 152.256,205.897 152.300,206.272 152.820 C 206.391 152.986,206.963 153.160,207.541 153.208 C 208.120 153.256,208.594 153.433,208.594 153.601 C 208.594 153.769,208.901 153.910,209.277 153.915 C 209.653 153.920,210.908 154.887,212.065 156.064 C 213.223 157.240,214.053 158.203,213.911 158.203 C 213.768 158.203,213.941 158.763,214.295 159.448 C 215.293 161.377,214.852 165.069,213.246 168.233 C 211.103 172.455,208.654 174.653,188.213 190.692 C 185.565 192.770,180.322 196.885,176.563 199.836 C 172.803 202.788,168.804 205.922,167.677 206.801 L 165.628 208.398 165.626 217.676 L 165.625 226.953 202.344 226.953 L 239.063 226.953 239.063 217.034 C 239.063 209.446,238.948 207.077,238.574 206.952 C 238.306 206.863,230.044 206.801,220.215 206.815 C 208.466 206.832,202.351 206.706,202.366 206.447 C 202.390 206.026,202.682 205.796,213.672 197.511 C 232.057 183.652,237.374 177.827,240.462 168.164 C 241.536 164.804,241.469 156.245,240.347 153.516 C 240.215 153.193,240.091 152.828,240.073 152.703 C 239.966 151.987,238.095 148.438,237.824 148.438 C 237.646 148.438,237.500 148.156,237.500 147.813 C 237.500 147.469,236.954 146.678,236.287 146.055 C 235.620 145.432,235.213 144.922,235.383 144.922 C 235.554 144.922,235.194 144.401,234.584 143.764 C 233.973 143.127,233.321 142.701,233.134 142.816 C 232.946 142.932,232.841 142.882,232.900 142.705 C 232.960 142.528,232.920 142.382,232.813 142.382 C 232.705 142.381,232.020 141.810,231.290 141.112 C 230.560 140.415,229.739 139.844,229.467 139.844 C 229.194 139.844,228.913 139.681,228.841 139.482 C 228.770 139.284,228.451 139.064,228.134 138.994 C 227.817 138.924,227.320 138.646,227.029 138.375 C 226.738 138.105,226.353 137.974,226.174 138.085 C 225.995 138.196,225.789 138.122,225.717 137.922 C 225.645 137.722,225.322 137.501,225.000 137.432 C 224.678 137.362,224.326 137.191,224.219 137.052 C 224.111 136.913,223.584 136.737,223.047 136.661 C 222.510 136.585,221.982 136.410,221.875 136.271 C 221.768 136.132,221.240 135.956,220.703 135.880 C 220.166 135.804,219.639 135.628,219.531 135.488 C 219.424 135.349,218.721 135.182,217.969 135.118 C 217.217 135.054,216.419 134.870,216.195 134.708 C 215.310 134.070,198.609 133.191,198.009 133.751 M97.266 135.997 C 77.944 137.583,64.776 151.906,68.052 167.773 C 68.229 168.633,68.476 169.863,68.601 170.508 C 68.725 171.152,69.000 171.787,69.212 171.919 C 69.425 172.050,69.565 172.277,69.524 172.424 C 69.393 172.895,70.396 175.000,70.751 175.000 C 70.939 175.000,71.094 175.256,71.094 175.569 C 71.094 176.292,77.585 182.813,78.305 182.813 C 78.600 182.813,78.900 182.975,78.971 183.174 C 79.043 183.373,79.365 183.592,79.688 183.662 C 80.010 183.732,80.558 184.097,80.905 184.473 C 81.253 184.849,81.809 185.156,82.142 185.156 C 82.475 185.156,82.806 185.319,82.878 185.518 C 82.949 185.716,83.267 185.936,83.584 186.006 C 83.902 186.076,84.399 186.354,84.690 186.625 C 84.981 186.895,85.381 187.017,85.578 186.895 C 85.776 186.773,85.938 186.828,85.938 187.018 C 85.938 187.207,87.827 188.305,90.137 189.456 C 92.446 190.608,94.395 191.693,94.466 191.869 C 94.538 192.044,94.919 192.188,95.313 192.188 C 95.706 192.188,96.087 192.350,96.159 192.549 C 96.230 192.748,96.546 192.967,96.860 193.037 C 97.174 193.107,97.778 193.472,98.203 193.848 C 98.628 194.224,99.206 194.531,99.488 194.531 C 99.769 194.531,100.000 194.677,100.000 194.856 C 100.000 195.034,100.483 195.430,101.074 195.735 C 106.005 198.279,106.825 205.156,102.584 208.391 C 99.323 210.878,91.472 212.041,86.133 210.828 C 82.891 210.092,81.640 209.892,81.635 210.111 C 81.631 210.243,81.500 210.150,81.342 209.904 C 81.184 209.657,80.615 209.393,80.078 209.318 C 79.541 209.242,79.014 209.066,78.906 208.927 C 78.799 208.788,78.271 208.612,77.734 208.536 C 77.197 208.460,76.670 208.311,76.563 208.203 C 76.362 208.003,73.933 207.058,73.251 206.916 C 73.042 206.872,72.632 206.615,72.341 206.344 C 72.050 206.074,71.650 205.952,71.453 206.074 C 71.255 206.196,71.094 206.110,71.094 205.882 C 71.094 205.655,70.753 205.469,70.336 205.469 C 69.919 205.469,69.463 205.283,69.323 205.056 C 68.296 203.395,67.964 205.029,67.810 212.500 C 67.724 216.689,67.533 220.661,67.385 221.325 C 67.129 222.479,68.834 223.906,70.020 223.530 C 70.181 223.479,70.313 223.613,70.313 223.828 C 70.313 224.043,70.649 224.219,71.061 224.219 C 71.473 224.219,71.868 224.393,71.940 224.606 C 72.012 224.819,72.554 225.033,73.145 225.082 C 73.735 225.131,74.219 225.269,74.219 225.391 C 74.219 225.512,75.054 225.834,76.074 226.108 C 77.095 226.381,78.545 226.769,79.297 226.969 C 80.049 227.169,81.191 227.406,81.836 227.495 C 82.480 227.585,83.271 227.754,83.594 227.871 C 85.575 228.592,97.525 228.967,100.781 228.411 C 115.640 225.871,125.209 218.835,128.794 207.813 C 129.914 204.367,129.677 192.691,128.478 192.252 C 128.281 192.180,128.211 191.974,128.321 191.795 C 128.432 191.616,128.301 191.231,128.031 190.940 C 127.760 190.649,127.482 190.152,127.412 189.834 C 127.342 189.517,127.121 189.199,126.921 189.127 C 126.721 189.055,126.650 188.846,126.763 188.664 C 126.876 188.481,126.525 187.889,125.984 187.348 C 125.443 186.806,125.000 186.194,125.000 185.986 C 125.000 185.494,121.537 182.031,121.045 182.031 C 120.838 182.031,120.225 181.588,119.684 181.047 C 119.142 180.506,118.567 180.145,118.405 180.245 C 118.243 180.345,117.864 180.085,117.563 179.667 C 117.262 179.248,116.717 178.906,116.353 178.906 C 115.988 178.906,115.632 178.744,115.560 178.545 C 115.488 178.346,115.170 178.126,114.853 178.057 C 114.536 177.987,114.038 177.708,113.747 177.438 C 113.456 177.167,113.057 177.046,112.859 177.168 C 112.662 177.290,112.500 177.234,112.500 177.043 C 112.500 176.668,109.013 174.923,108.442 175.012 C 108.251 175.042,107.986 174.890,107.852 174.674 C 107.719 174.458,107.352 174.223,107.037 174.152 C 106.722 174.081,106.226 173.802,105.935 173.532 C 105.644 173.261,105.259 173.130,105.080 173.241 C 104.901 173.352,104.695 173.279,104.623 173.079 C 104.551 172.879,104.233 172.658,103.916 172.588 C 103.598 172.518,103.101 172.240,102.810 171.969 C 102.519 171.699,102.119 171.577,101.922 171.699 C 101.724 171.821,101.563 171.765,101.563 171.573 C 101.563 171.382,101.079 170.976,100.488 170.671 C 99.897 170.367,99.180 169.896,98.894 169.625 C 98.608 169.355,98.213 169.233,98.015 169.355 C 97.818 169.477,97.656 169.421,97.656 169.230 C 97.656 169.038,97.175 168.633,96.587 168.328 C 89.136 164.466,89.878 155.524,97.812 153.558 C 99.931 153.034,107.690 153.032,109.517 153.556 C 110.159 153.740,111.268 153.930,111.983 153.978 C 112.697 154.027,113.281 154.206,113.281 154.377 C 113.281 154.548,113.665 154.688,114.134 154.688 C 115.119 154.688,118.925 155.948,121.484 157.121 C 122.451 157.565,123.462 157.931,123.730 157.935 C 123.999 157.939,124.219 158.069,124.219 158.223 C 124.219 158.377,124.614 158.578,125.098 158.671 L 125.977 158.839 125.994 152.955 C 126.004 149.718,126.213 145.869,126.458 144.401 C 127.051 140.846,127.002 140.771,123.438 139.807 C 123.115 139.720,122.764 139.535,122.656 139.396 C 122.549 139.257,122.021 139.081,121.484 139.005 C 120.947 138.929,120.417 138.747,120.305 138.600 C 120.194 138.453,119.666 138.260,119.133 138.171 C 118.600 138.083,117.900 137.904,117.578 137.774 C 117.256 137.644,116.465 137.444,115.820 137.331 C 115.176 137.217,113.945 136.977,113.086 136.797 C 108.559 135.847,102.708 135.551,97.266 135.997 M303.516 135.999 C 287.990 137.264,276.911 145.849,274.239 158.683 C 273.480 162.328,274.324 171.049,275.520 171.919 C 275.700 172.050,275.815 172.277,275.774 172.424 C 275.639 172.911,276.652 175.000,277.024 175.000 C 277.225 175.000,277.287 175.166,277.162 175.368 C 277.037 175.571,277.554 176.356,278.311 177.113 C 279.068 177.870,279.688 178.701,279.688 178.958 C 279.688 179.216,279.790 179.325,279.915 179.200 C 280.040 179.075,281.024 179.837,282.103 180.893 C 283.181 181.949,284.229 182.812,284.431 182.813 C 284.633 182.813,285.176 183.164,285.637 183.594 C 286.098 184.023,286.706 184.375,286.988 184.375 C 287.269 184.375,287.500 184.551,287.500 184.766 C 287.500 184.980,287.776 185.156,288.114 185.156 C 288.451 185.156,288.993 185.422,289.317 185.746 C 289.641 186.070,290.068 186.235,290.266 186.113 C 290.463 185.991,290.625 186.056,290.625 186.258 C 290.625 186.647,292.963 187.750,293.457 187.593 C 293.618 187.542,293.750 187.648,293.750 187.829 C 293.750 188.010,294.585 188.582,295.605 189.099 C 296.626 189.616,297.520 190.171,297.591 190.332 C 297.663 190.493,298.058 190.625,298.470 190.625 C 298.882 190.625,299.219 190.801,299.219 191.016 C 299.219 191.230,299.495 191.406,299.833 191.406 C 300.170 191.406,300.712 191.672,301.036 191.996 C 301.360 192.320,301.787 192.485,301.985 192.363 C 302.182 192.241,302.344 192.284,302.344 192.458 C 302.344 192.632,303.179 193.214,304.199 193.751 C 305.219 194.287,306.837 195.462,307.793 196.362 C 308.748 197.261,309.699 197.893,309.904 197.766 C 310.109 197.639,310.164 197.719,310.026 197.942 C 309.887 198.166,310.036 198.566,310.356 198.832 C 310.676 199.097,310.938 199.644,310.938 200.048 C 310.938 200.451,311.090 200.781,311.277 200.781 C 311.801 200.781,311.440 204.511,310.798 205.741 C 309.376 208.463,305.543 210.715,301.563 211.167 C 297.769 211.598,297.178 211.610,295.898 211.281 C 295.254 211.115,293.848 210.926,292.773 210.861 C 291.699 210.796,290.732 210.628,290.625 210.488 C 290.518 210.349,289.814 210.177,289.063 210.106 C 288.311 210.036,287.607 209.860,287.500 209.715 C 287.393 209.570,286.758 209.366,286.089 209.261 C 285.420 209.156,284.498 208.868,284.038 208.623 C 283.579 208.377,283.200 208.314,283.197 208.482 C 283.194 208.651,283.062 208.613,282.904 208.398 C 282.597 207.980,280.202 206.978,279.395 206.930 C 279.126 206.914,278.906 206.755,278.906 206.576 C 278.906 206.396,278.648 206.250,278.332 206.250 C 278.016 206.250,277.182 205.930,276.477 205.540 C 273.857 204.088,274.016 203.713,274.095 211.148 C 274.143 215.688,273.998 218.537,273.654 219.843 C 273.372 220.912,273.252 221.959,273.387 222.170 C 273.732 222.709,277.733 224.688,277.740 224.323 C 277.744 224.158,277.885 224.242,278.055 224.510 C 278.225 224.777,278.838 225.035,279.416 225.083 C 279.995 225.131,280.469 225.269,280.469 225.391 C 280.469 225.512,281.304 225.834,282.324 226.108 C 283.345 226.381,284.795 226.769,285.547 226.969 C 286.299 227.169,287.441 227.406,288.086 227.495 C 288.730 227.585,289.521 227.754,289.844 227.871 C 292.993 229.017,308.014 228.881,310.247 227.686 C 310.627 227.483,310.938 227.398,310.938 227.498 C 310.938 227.598,311.509 227.502,312.207 227.284 C 312.905 227.066,314.116 226.730,314.897 226.538 C 323.856 224.330,332.081 216.429,334.999 207.227 C 336.064 203.866,335.997 195.345,334.883 192.578 C 334.754 192.256,334.596 191.732,334.533 191.413 C 334.469 191.095,334.231 190.772,334.003 190.696 C 333.775 190.620,333.679 190.412,333.790 190.233 C 333.901 190.053,333.770 189.669,333.500 189.378 C 333.229 189.087,332.953 188.600,332.886 188.297 C 332.819 187.993,332.423 187.449,332.007 187.088 C 331.591 186.727,331.250 186.247,331.250 186.020 C 331.250 185.516,327.813 182.031,327.316 182.031 C 327.120 182.031,326.534 181.662,326.014 181.210 C 325.495 180.758,325.006 180.451,324.928 180.526 C 324.850 180.602,324.362 180.269,323.843 179.785 C 323.324 179.302,322.684 178.906,322.420 178.906 C 322.156 178.906,321.882 178.744,321.810 178.545 C 321.738 178.346,321.416 178.126,321.094 178.057 C 320.771 177.987,320.418 177.812,320.309 177.668 C 320.199 177.524,319.852 177.348,319.537 177.277 C 319.222 177.206,318.726 176.927,318.435 176.657 C 318.144 176.386,317.744 176.265,317.547 176.387 C 317.349 176.509,317.188 176.444,317.188 176.242 C 317.188 175.871,315.099 174.858,314.611 174.993 C 314.465 175.034,314.236 174.890,314.102 174.674 C 313.969 174.458,313.602 174.223,313.287 174.152 C 312.972 174.081,312.476 173.802,312.185 173.532 C 311.894 173.261,311.509 173.130,311.330 173.241 C 311.151 173.352,310.945 173.279,310.873 173.079 C 310.801 172.879,310.483 172.658,310.166 172.588 C 309.848 172.518,309.351 172.240,309.060 171.969 C 308.769 171.699,308.369 171.577,308.172 171.699 C 307.974 171.821,307.813 171.779,307.813 171.604 C 307.813 171.430,306.978 170.853,305.957 170.321 C 304.937 169.790,304.012 169.233,303.903 169.084 C 303.793 168.935,303.455 168.755,303.151 168.684 C 302.848 168.613,301.986 167.991,301.236 167.302 C 300.486 166.612,299.698 166.156,299.485 166.288 C 299.272 166.419,299.204 166.356,299.333 166.147 C 299.462 165.938,299.181 165.333,298.710 164.803 C 296.599 162.430,297.241 157.655,299.981 155.349 C 302.318 153.383,313.293 152.159,316.058 153.557 C 316.403 153.731,317.326 153.917,318.109 153.970 C 318.891 154.023,319.531 154.206,319.531 154.377 C 319.531 154.548,319.915 154.688,320.384 154.688 C 321.369 154.688,325.175 155.948,327.734 157.121 C 328.701 157.565,329.712 157.931,329.980 157.935 C 330.249 157.939,330.469 158.101,330.469 158.295 C 330.469 158.489,330.834 158.592,331.280 158.523 C 332.057 158.404,332.095 158.132,332.207 151.953 C 332.310 146.262,332.537 143.373,332.993 141.957 C 333.249 141.163,331.106 139.844,329.395 139.743 C 329.126 139.727,328.906 139.605,328.906 139.473 C 328.906 139.250,326.606 138.479,324.805 138.099 C 324.375 138.008,323.449 137.759,322.747 137.547 C 322.044 137.334,321.384 137.152,321.280 137.142 C 321.176 137.132,320.696 137.028,320.213 136.911 C 319.731 136.795,318.721 136.642,317.969 136.571 C 317.217 136.501,316.162 136.332,315.625 136.197 C 314.100 135.813,307.183 135.700,303.516 135.999 " stroke="none" fill="#f96c06" fill-rule="evenodd"></path><path id="path1" d="M0.000 200.000 L 0.000 400.000 200.000 400.000 L 400.000 400.000 400.000 200.000 L 400.000 0.000 200.000 0.000 L 0.000 0.000 0.000 200.000 M198.041 133.361 C 198.049 132.767,210.631 132.767,211.029 133.361 C 211.215 133.638,211.320 133.582,211.328 133.203 C 211.339 132.682,211.382 132.682,211.719 133.203 C 212.055 133.724,212.099 133.724,212.109 133.203 C 212.118 132.803,212.212 132.760,212.409 133.069 C 212.567 133.317,213.487 133.572,214.453 133.635 C 215.420 133.699,216.340 133.935,216.498 134.161 C 216.675 134.414,216.789 134.347,216.797 133.984 C 216.805 133.571,216.896 133.535,217.103 133.861 C 217.265 134.116,217.834 134.384,218.367 134.457 C 218.900 134.530,219.583 134.745,219.885 134.934 C 220.244 135.158,220.345 135.134,220.177 134.863 C 220.010 134.593,220.261 134.606,220.895 134.900 C 221.431 135.148,221.873 135.527,221.878 135.742 C 221.883 135.957,222.057 135.869,222.266 135.547 C 222.518 135.156,222.646 135.124,222.650 135.449 C 222.654 135.718,222.993 135.938,223.405 135.938 C 223.817 135.938,224.212 136.097,224.284 136.291 C 224.355 136.485,224.854 136.705,225.391 136.779 C 225.928 136.853,226.601 137.135,226.887 137.406 C 227.173 137.676,227.568 137.798,227.766 137.676 C 227.963 137.554,228.125 137.620,228.125 137.823 C 228.125 138.026,228.733 138.481,229.476 138.833 C 230.218 139.186,230.934 139.648,231.065 139.861 C 231.196 140.073,231.472 140.143,231.677 140.016 C 231.883 139.890,232.002 139.957,231.943 140.166 C 231.884 140.376,231.971 140.561,232.136 140.579 C 232.634 140.633,237.414 145.488,237.249 145.774 C 237.165 145.920,237.271 146.147,237.483 146.279 C 237.696 146.410,238.158 147.125,238.511 147.868 C 238.863 148.611,239.318 149.219,239.521 149.219 C 239.724 149.219,239.790 149.380,239.668 149.578 C 239.546 149.775,239.680 150.171,239.966 150.457 C 240.535 151.026,240.625 151.260,240.625 152.171 C 240.625 152.506,240.757 152.699,240.918 152.600 C 241.079 152.500,241.258 153.228,241.316 154.218 C 241.374 155.208,241.571 156.114,241.754 156.232 C 242.145 156.483,242.219 165.234,241.830 165.234 C 241.685 165.234,241.522 165.888,241.468 166.687 C 241.414 167.486,241.246 168.233,241.095 168.347 C 240.944 168.461,240.760 168.994,240.685 169.531 C 240.611 170.068,240.391 170.566,240.197 170.638 C 240.003 170.710,239.844 171.024,239.844 171.337 C 239.844 174.306,232.024 183.884,225.196 189.278 C 224.122 190.126,223.008 191.043,222.721 191.315 C 222.433 191.586,221.554 192.289,220.767 192.877 C 219.980 193.465,218.898 194.341,218.363 194.824 C 217.828 195.308,217.270 195.703,217.122 195.703 C 216.974 195.703,216.620 195.929,216.336 196.204 C 216.053 196.480,215.205 197.133,214.453 197.657 C 213.701 198.180,212.559 199.096,211.914 199.693 C 211.270 200.289,210.522 200.778,210.254 200.779 C 209.985 200.780,209.766 200.919,209.766 201.088 C 209.766 201.256,209.239 201.705,208.595 202.085 C 207.229 202.892,203.527 206.293,204.102 206.212 C 204.316 206.182,212.446 206.178,222.168 206.204 L 239.844 206.250 239.844 216.515 C 239.844 226.296,239.807 226.811,239.063 227.448 C 238.538 227.898,238.279 227.958,238.275 227.633 C 238.272 227.332,238.160 227.297,237.982 227.539 C 237.591 228.071,227.627 228.086,227.252 227.555 C 227.076 227.306,226.960 227.375,226.953 227.734 C 226.942 228.255,226.899 228.255,226.563 227.734 C 226.226 227.214,226.183 227.214,226.172 227.734 C 226.161 228.255,226.118 228.255,225.781 227.734 C 225.445 227.214,225.401 227.214,225.391 227.734 C 225.380 228.255,225.337 228.255,225.000 227.734 C 224.792 227.412,224.619 227.325,224.615 227.542 C 224.607 228.077,210.158 228.074,210.150 227.539 C 210.147 227.324,209.974 227.412,209.766 227.734 C 209.429 228.255,209.386 228.255,209.375 227.734 C 209.368 227.389,209.245 227.309,209.076 227.539 C 208.918 227.754,208.262 227.930,207.617 227.930 C 206.973 227.930,206.316 227.754,206.158 227.539 C 205.989 227.309,205.866 227.389,205.859 227.734 C 205.849 228.255,205.805 228.255,205.469 227.734 C 205.260 227.412,205.087 227.330,205.084 227.553 C 205.081 227.776,204.463 227.958,203.711 227.958 C 202.959 227.958,202.341 227.776,202.338 227.553 C 202.334 227.330,202.161 227.412,201.953 227.734 C 201.678 228.160,201.573 228.181,201.568 227.809 C 201.565 227.528,201.382 227.409,201.162 227.545 C 200.574 227.908,196.094 228.031,196.094 227.684 C 196.094 227.522,195.698 227.485,195.215 227.604 C 193.538 228.015,184.375 227.969,184.369 227.550 C 184.366 227.329,184.193 227.412,183.984 227.734 C 183.648 228.255,183.604 228.255,183.594 227.734 C 183.587 227.389,183.464 227.309,183.295 227.539 C 182.896 228.082,181.251 228.120,181.244 227.586 C 181.241 227.345,181.068 227.412,180.859 227.734 C 180.523 228.255,180.479 228.255,180.469 227.734 C 180.459 227.264,180.392 227.251,180.126 227.670 C 179.944 227.957,179.659 228.192,179.492 228.192 C 179.325 228.192,179.040 227.957,178.858 227.670 C 178.593 227.251,178.525 227.264,178.516 227.734 C 178.505 228.255,178.462 228.255,178.125 227.734 C 177.788 227.214,177.745 227.214,177.734 227.734 C 177.724 228.255,177.680 228.255,177.344 227.734 C 177.007 227.214,176.964 227.214,176.953 227.734 C 176.942 228.255,176.899 228.255,176.563 227.734 C 176.226 227.214,176.183 227.214,176.172 227.734 C 176.161 228.255,176.118 228.255,175.781 227.734 C 175.445 227.214,175.401 227.214,175.391 227.734 C 175.380 228.255,175.337 228.255,175.000 227.734 C 174.663 227.214,174.620 227.214,174.609 227.734 C 174.599 228.255,174.555 228.255,174.219 227.734 C 173.882 227.214,173.839 227.214,173.828 227.734 C 173.817 228.255,173.774 228.255,173.438 227.734 C 173.101 227.214,173.058 227.214,173.047 227.734 C 173.036 228.255,172.993 228.255,172.656 227.734 C 172.320 227.214,172.276 227.214,172.266 227.734 C 172.255 228.255,172.212 228.255,171.875 227.734 C 171.538 227.214,171.495 227.214,171.484 227.734 C 171.474 228.255,171.430 228.255,171.094 227.734 C 170.757 227.214,170.714 227.214,170.703 227.734 C 170.692 228.255,170.649 228.255,170.313 227.734 C 169.976 227.214,169.933 227.214,169.922 227.734 C 169.911 228.255,169.868 228.255,169.531 227.734 C 169.195 227.214,169.151 227.214,169.141 227.734 C 169.130 228.255,169.087 228.255,168.750 227.734 C 168.413 227.214,168.370 227.214,168.359 227.734 C 168.349 228.255,168.305 228.255,167.969 227.734 C 167.744 227.387,167.588 227.337,167.584 227.611 C 167.579 228.034,165.941 227.976,165.215 227.527 C 165.067 227.436,164.969 223.033,164.996 217.743 L 165.045 208.124 166.995 206.582 C 168.068 205.733,169.209 204.825,169.531 204.565 C 169.854 204.304,170.904 203.478,171.865 202.729 C 172.827 201.980,173.843 201.154,174.124 200.894 C 174.405 200.634,175.420 199.857,176.380 199.168 C 177.340 198.478,178.125 197.768,178.125 197.590 C 178.125 197.412,178.308 197.266,178.533 197.266 C 178.757 197.266,179.963 196.431,181.212 195.410 C 182.461 194.390,185.310 192.154,187.542 190.441 C 189.775 188.729,191.689 187.230,191.797 187.111 C 191.904 186.991,192.783 186.283,193.749 185.537 C 194.715 184.790,195.769 183.967,196.092 183.706 C 196.415 183.446,198.701 181.623,201.172 179.656 C 208.503 173.820,212.467 169.828,212.490 168.262 C 212.496 167.886,212.633 167.578,212.796 167.578 C 213.326 167.578,214.063 164.515,214.063 162.311 C 214.063 161.126,213.887 160.156,213.672 160.156 C 213.457 160.156,213.302 160.024,213.328 159.863 C 213.491 158.827,213.075 158.059,211.493 156.476 C 209.895 154.878,209.127 154.468,208.076 154.651 C 207.899 154.682,207.866 154.527,208.002 154.307 C 208.217 153.959,207.435 153.719,206.543 153.860 C 206.382 153.885,206.247 153.687,206.244 153.418 C 206.240 153.092,206.112 153.125,205.859 153.516 C 205.583 153.943,205.479 153.963,205.475 153.589 C 205.465 152.786,198.871 153.018,197.882 153.856 C 197.279 154.367,197.194 154.377,197.451 153.906 C 197.702 153.447,197.664 153.419,197.275 153.778 C 197.003 154.030,196.538 154.143,196.241 154.029 C 195.945 153.916,195.703 154.017,195.703 154.255 C 195.703 154.493,195.417 154.688,195.067 154.688 C 194.230 154.688,190.648 158.213,190.635 159.049 C 190.630 159.408,190.457 159.759,190.251 159.831 C 190.046 159.902,189.834 160.620,189.781 161.426 C 189.728 162.231,189.588 162.891,189.471 162.891 C 189.354 162.891,189.223 163.532,189.180 164.317 C 189.137 165.101,188.952 165.892,188.769 166.075 C 188.517 166.327,168.189 166.530,164.833 166.314 C 164.142 166.270,163.950 162.895,164.638 162.885 C 164.858 162.881,164.775 162.708,164.453 162.500 C 164.131 162.292,164.051 162.119,164.276 162.115 C 164.643 162.110,164.887 160.769,164.970 158.301 C 164.987 157.817,165.141 157.422,165.313 157.422 C 165.484 157.422,165.625 157.068,165.625 156.634 C 165.625 155.534,166.535 152.734,166.892 152.734 C 167.055 152.734,167.188 152.383,167.188 151.953 C 167.188 151.523,167.393 151.172,167.643 151.172 C 167.894 151.172,167.989 151.062,167.854 150.927 C 167.619 150.692,168.455 148.778,169.182 147.888 C 169.374 147.653,170.207 146.618,171.033 145.589 C 172.693 143.519,176.377 140.272,178.035 139.418 C 178.621 139.116,179.189 138.761,179.297 138.629 C 179.715 138.117,181.945 137.154,182.177 137.385 C 182.312 137.520,182.422 137.457,182.422 137.245 C 182.422 137.033,183.301 136.621,184.375 136.328 C 185.449 136.036,186.328 135.691,186.328 135.561 C 186.328 135.432,186.802 135.287,187.380 135.240 C 187.959 135.192,188.572 134.934,188.742 134.666 C 188.912 134.399,189.053 134.288,189.057 134.420 C 189.062 134.636,190.261 134.455,192.903 133.839 C 193.403 133.722,194.590 133.586,195.539 133.537 C 196.489 133.488,197.268 133.261,197.272 133.032 C 197.275 132.804,197.448 132.881,197.656 133.203 C 197.865 133.525,198.038 133.597,198.041 133.361 M312.695 135.184 C 314.629 135.254,316.340 135.496,316.498 135.722 C 316.676 135.977,316.789 135.910,316.797 135.547 C 316.805 135.149,316.901 135.105,317.096 135.410 C 317.254 135.657,317.998 135.917,318.750 135.988 C 319.502 136.058,320.246 136.296,320.404 136.515 C 320.577 136.755,320.696 136.681,320.703 136.328 C 320.711 135.930,320.807 135.886,321.002 136.191 C 321.160 136.438,321.904 136.693,322.656 136.757 C 323.408 136.821,324.199 136.997,324.414 137.149 C 324.629 137.300,325.332 137.484,325.977 137.558 C 326.621 137.631,327.575 137.903,328.097 138.161 C 328.619 138.420,329.217 138.526,329.427 138.396 C 329.638 138.266,329.684 138.362,329.529 138.612 C 329.283 139.011,329.998 139.260,330.957 139.109 C 331.118 139.083,331.250 139.238,331.250 139.453 C 331.250 139.668,331.602 139.844,332.031 139.844 C 332.461 139.844,332.815 140.063,332.818 140.332 C 332.823 140.684,332.905 140.696,333.111 140.375 C 333.319 140.053,333.537 140.080,333.902 140.473 C 334.179 140.771,334.259 141.016,334.080 141.016 C 333.900 141.016,333.710 141.675,333.656 142.480 C 333.603 143.286,333.372 144.011,333.142 144.090 C 332.883 144.180,332.926 144.363,333.257 144.573 C 333.592 144.785,333.621 144.912,333.335 144.916 C 332.645 144.925,332.596 157.810,333.286 157.818 C 333.641 157.823,333.617 157.936,333.203 158.203 C 332.881 158.411,332.771 158.584,332.958 158.588 C 333.145 158.591,333.095 158.839,332.846 159.139 C 332.404 159.672,330.875 159.558,330.469 158.961 C 330.361 158.803,329.834 158.612,329.297 158.536 C 328.760 158.460,328.086 158.177,327.801 157.907 C 327.515 157.636,327.134 157.505,326.955 157.616 C 326.776 157.727,326.570 157.657,326.498 157.462 C 326.426 157.266,325.928 157.045,325.391 156.971 C 324.854 156.897,324.326 156.722,324.219 156.583 C 324.111 156.444,323.584 156.268,323.047 156.193 C 322.510 156.117,321.982 155.941,321.875 155.802 C 321.768 155.663,321.240 155.487,320.703 155.411 C 320.166 155.335,319.634 155.151,319.521 155.000 C 319.407 154.850,318.440 154.646,317.372 154.546 C 316.304 154.447,315.430 154.336,315.430 154.299 C 315.430 153.649,305.783 153.623,303.613 154.268 C 303.560 154.284,303.384 154.316,303.223 154.339 C 301.402 154.599,298.806 156.990,298.555 158.637 C 298.337 160.066,298.235 160.357,297.852 160.639 C 297.622 160.807,297.702 160.930,298.047 160.938 C 298.568 160.948,298.568 160.992,298.047 161.328 C 297.725 161.536,297.642 161.709,297.864 161.713 C 298.086 161.716,298.305 162.178,298.352 162.739 C 298.435 163.747,301.323 166.712,302.018 166.504 C 302.197 166.450,302.300 166.564,302.246 166.758 C 302.192 166.951,302.284 167.123,302.449 167.140 C 302.614 167.157,303.131 167.526,303.597 167.961 C 304.063 168.395,304.653 168.750,304.909 168.750 C 305.164 168.750,305.595 169.018,305.867 169.345 C 306.139 169.673,306.455 169.847,306.570 169.732 C 306.684 169.618,307.215 169.921,307.749 170.407 C 308.283 170.892,308.573 171.025,308.394 170.703 C 308.187 170.330,308.376 170.387,308.917 170.861 C 309.384 171.271,309.768 171.446,309.772 171.252 C 309.775 171.058,309.907 171.074,310.065 171.289 C 310.648 172.083,311.910 172.923,311.531 172.266 C 311.320 171.899,311.512 171.959,312.042 172.424 C 312.509 172.833,312.891 173.046,312.891 172.897 C 312.891 172.748,313.275 172.984,313.746 173.422 C 314.501 174.127,314.994 174.303,315.874 174.185 C 316.011 174.167,316.249 174.355,316.402 174.602 C 316.555 174.849,316.952 175.092,317.285 175.141 C 317.618 175.190,318.171 175.463,318.515 175.749 C 318.859 176.034,319.141 176.127,319.141 175.956 C 319.141 175.785,319.608 176.071,320.180 176.592 C 320.752 177.113,321.075 177.275,320.898 176.953 C 320.722 176.631,321.012 176.763,321.544 177.246 C 322.076 177.729,322.698 178.125,322.927 178.125 C 323.155 178.125,323.564 178.393,323.836 178.720 C 324.108 179.048,324.412 179.234,324.511 179.135 C 324.611 179.035,325.124 179.386,325.653 179.914 C 326.181 180.442,326.805 180.756,327.039 180.611 C 327.293 180.454,327.353 180.529,327.186 180.799 C 327.032 181.047,327.106 181.250,327.349 181.250 C 327.591 181.250,328.055 181.515,328.380 181.840 C 328.704 182.164,329.135 182.326,329.338 182.201 C 329.541 182.076,329.659 182.206,329.600 182.490 C 329.540 182.775,329.725 182.960,330.010 182.900 C 330.294 182.841,330.435 182.941,330.323 183.122 C 330.211 183.303,330.550 183.915,331.076 184.482 C 331.601 185.049,332.031 185.670,332.031 185.863 C 332.031 186.055,332.560 186.766,333.207 187.442 C 333.853 188.118,334.161 188.686,333.890 188.703 C 333.499 188.727,333.498 188.774,333.887 188.931 C 334.155 189.039,334.375 189.387,334.375 189.704 C 334.375 190.021,334.513 190.195,334.683 190.090 C 334.852 189.986,335.029 190.361,335.075 190.924 C 335.122 191.488,335.291 192.046,335.451 192.166 C 335.611 192.285,335.804 192.822,335.880 193.359 C 335.956 193.896,336.220 194.465,336.466 194.623 C 336.770 194.817,336.725 194.914,336.328 194.922 C 335.807 194.933,335.807 194.976,336.328 195.313 C 336.849 195.649,336.849 195.692,336.328 195.703 C 335.958 195.711,335.896 195.821,336.160 196.002 C 336.595 196.300,336.762 204.297,336.334 204.297 C 336.207 204.297,336.061 204.861,336.008 205.551 C 335.626 210.568,330.064 218.998,325.025 222.197 C 324.474 222.547,323.936 222.947,323.828 223.085 C 323.471 223.545,318.782 225.781,318.175 225.781 C 317.847 225.781,317.578 225.925,317.578 226.101 C 317.578 226.426,313.603 227.647,313.325 227.408 C 313.242 227.336,313.050 227.476,312.899 227.720 C 312.749 227.964,311.982 228.199,311.196 228.242 C 310.409 228.285,309.766 228.423,309.766 228.548 C 309.766 228.674,309.546 228.796,309.277 228.821 C 309.009 228.846,307.822 228.978,306.641 229.114 C 303.519 229.474,294.761 229.572,294.529 229.249 C 294.421 229.098,293.366 228.927,292.185 228.870 C 291.005 228.812,289.910 228.577,289.752 228.347 C 289.571 228.084,289.461 228.146,289.453 228.516 C 289.445 228.926,289.353 228.963,289.149 228.642 C 288.988 228.389,288.068 228.125,287.104 228.056 C 286.140 227.986,285.264 227.816,285.156 227.677 C 285.049 227.538,284.521 227.362,283.984 227.286 C 283.447 227.210,282.879 226.973,282.721 226.758 C 282.546 226.520,282.431 226.569,282.428 226.883 C 282.423 227.279,282.284 227.262,281.831 226.809 C 281.507 226.484,280.887 226.287,280.454 226.370 C 280.021 226.453,279.770 226.355,279.895 226.151 C 280.095 225.828,279.281 225.599,278.418 225.735 C 278.257 225.760,278.125 225.605,278.125 225.391 C 278.125 225.176,277.809 225.000,277.422 225.000 C 277.035 225.000,276.482 224.780,276.193 224.512 C 275.765 224.115,275.726 224.133,275.986 224.609 C 276.218 225.033,276.090 225.006,275.524 224.511 C 275.093 224.134,274.624 223.944,274.480 224.088 C 274.336 224.231,274.219 224.144,274.219 223.893 C 274.219 223.643,273.859 223.438,273.420 223.438 C 272.719 223.438,272.632 223.220,272.711 221.680 C 272.761 220.713,272.989 219.919,273.218 219.916 C 273.446 219.913,273.369 219.740,273.047 219.531 C 272.656 219.279,272.624 219.151,272.949 219.147 C 273.321 219.142,273.438 217.510,273.438 212.305 C 273.438 207.113,273.320 205.461,272.949 205.438 C 272.561 205.413,272.562 205.366,272.952 205.209 C 273.222 205.100,273.355 204.871,273.249 204.698 C 272.934 204.189,274.133 203.416,274.690 203.769 C 274.968 203.945,275.283 204.107,275.391 204.129 C 275.970 204.247,277.177 204.868,277.366 205.145 C 277.485 205.321,278.044 205.503,278.607 205.550 C 279.170 205.596,279.546 205.773,279.441 205.942 C 279.278 206.207,279.859 206.332,280.718 206.217 C 280.855 206.198,281.085 206.373,281.228 206.605 C 281.372 206.838,281.950 207.066,282.513 207.112 C 283.077 207.159,283.452 207.335,283.347 207.505 C 283.184 207.769,283.766 207.894,284.624 207.779 C 284.761 207.761,284.993 207.938,285.138 208.174 C 285.283 208.409,286.006 208.671,286.744 208.756 C 287.482 208.842,288.476 209.035,288.954 209.186 C 289.431 209.337,289.939 209.426,290.082 209.384 C 290.225 209.342,290.491 209.543,290.673 209.830 C 290.939 210.249,291.006 210.236,291.016 209.766 C 291.025 209.320,291.103 209.298,291.341 209.674 C 291.521 209.957,292.603 210.208,293.874 210.260 C 295.094 210.310,296.096 210.527,296.099 210.742 C 296.103 210.957,296.276 210.869,296.484 210.547 C 296.693 210.225,296.866 210.142,296.869 210.362 C 296.872 210.583,297.666 210.764,298.633 210.764 C 299.600 210.764,300.393 210.583,300.397 210.362 C 300.400 210.142,300.573 210.225,300.781 210.547 C 300.990 210.869,301.163 210.948,301.166 210.723 C 301.169 210.497,301.567 210.296,302.051 210.275 C 303.942 210.196,305.078 209.972,305.078 209.680 C 305.078 209.512,305.257 209.375,305.477 209.375 C 306.970 209.375,310.873 205.532,310.308 204.617 C 310.199 204.441,310.296 204.297,310.524 204.297 C 310.754 204.297,310.938 203.516,310.938 202.539 C 310.938 201.562,310.754 200.781,310.524 200.781 C 310.296 200.781,310.208 200.623,310.327 200.430 C 310.586 200.011,305.897 195.313,305.221 195.313 C 304.963 195.313,304.694 195.150,304.622 194.951 C 304.551 194.752,304.229 194.533,303.906 194.463 C 303.584 194.393,303.036 194.028,302.689 193.652 C 302.341 193.276,301.784 192.969,301.452 192.969 C 301.119 192.969,300.788 192.794,300.716 192.581 C 300.645 192.369,300.115 192.155,299.540 192.108 C 298.965 192.061,298.579 191.883,298.684 191.714 C 298.789 191.545,298.600 191.406,298.265 191.406 C 297.930 191.406,297.656 191.230,297.656 191.016 C 297.656 190.801,297.326 190.625,296.923 190.625 C 296.519 190.625,295.972 190.363,295.707 190.043 C 295.441 189.723,295.083 189.549,294.911 189.655 C 294.739 189.762,294.539 189.685,294.467 189.485 C 294.395 189.285,294.072 189.064,293.750 188.994 C 293.428 188.924,293.075 188.749,292.965 188.606 C 292.856 188.462,292.511 188.286,292.199 188.215 C 291.887 188.144,291.284 187.778,290.860 187.402 C 290.153 186.777,289.381 186.537,288.545 186.682 C 288.368 186.713,288.335 186.558,288.471 186.338 C 288.607 186.118,288.465 185.938,288.157 185.938 C 287.848 185.938,287.373 185.670,287.102 185.342 C 286.830 185.015,286.524 184.831,286.421 184.933 C 286.319 185.035,285.978 184.862,285.664 184.548 C 285.350 184.234,284.927 184.080,284.724 184.205 C 284.522 184.330,284.404 184.288,284.463 184.111 C 284.522 183.934,284.438 183.746,284.276 183.693 C 284.114 183.640,283.428 183.069,282.753 182.424 C 282.077 181.778,281.369 181.250,281.179 181.250 C 280.809 181.250,278.173 178.729,278.021 178.229 C 277.971 178.064,277.785 177.978,277.608 178.037 C 277.431 178.096,277.390 177.976,277.516 177.771 C 277.643 177.566,277.573 177.290,277.361 177.159 C 277.148 177.027,276.686 176.312,276.333 175.569 C 275.981 174.827,275.526 174.219,275.323 174.219 C 275.120 174.219,275.054 174.057,275.176 173.860 C 275.298 173.662,275.120 173.223,274.780 172.883 C 274.314 172.417,274.289 172.258,274.679 172.235 C 275.073 172.211,275.080 172.157,274.707 172.007 C 274.438 171.899,274.219 171.473,274.219 171.061 C 274.219 170.649,273.999 170.310,273.730 170.307 C 273.405 170.303,273.438 170.174,273.828 169.922 C 274.150 169.714,274.227 169.541,273.999 169.537 C 273.770 169.534,273.540 168.700,273.488 167.685 C 273.435 166.669,273.183 165.705,272.927 165.542 C 272.596 165.332,272.631 165.243,273.047 165.234 C 273.568 165.224,273.568 165.180,273.047 164.844 C 272.526 164.507,272.526 164.464,273.047 164.453 C 273.568 164.442,273.568 164.399,273.047 164.063 C 272.526 163.726,272.526 163.683,273.047 163.672 C 273.568 163.661,273.568 163.618,273.047 163.281 C 272.725 163.073,272.651 162.900,272.884 162.897 C 273.117 162.893,273.317 162.671,273.328 162.402 C 273.486 158.633,273.624 157.422,273.895 157.422 C 274.073 157.422,274.219 156.895,274.219 156.250 C 274.219 155.605,274.356 155.078,274.524 155.078 C 274.692 155.078,274.869 154.605,274.917 154.026 C 274.965 153.447,275.139 152.876,275.304 152.756 C 275.470 152.637,276.040 151.669,276.572 150.605 C 278.582 146.584,287.214 139.145,290.723 138.409 C 291.313 138.285,291.797 138.059,291.797 137.907 C 291.797 137.755,292.061 137.601,292.383 137.565 C 292.705 137.529,293.232 137.471,293.555 137.435 C 293.877 137.399,294.141 137.194,294.141 136.979 C 294.141 136.764,294.242 136.690,294.365 136.813 C 294.489 136.937,295.148 136.864,295.830 136.650 C 296.512 136.437,297.773 136.169,298.633 136.055 C 299.492 135.940,300.283 135.729,300.391 135.586 C 300.498 135.443,301.025 135.332,301.563 135.339 C 302.100 135.347,303.418 135.265,304.492 135.157 C 305.566 135.049,307.061 134.982,307.813 135.008 C 308.564 135.034,310.762 135.113,312.695 135.184 M110.243 135.673 C 110.453 136.005,110.537 135.983,110.541 135.597 C 110.545 135.204,110.681 135.172,111.050 135.478 C 111.326 135.708,112.249 135.949,113.101 136.014 C 113.952 136.079,114.745 136.261,114.862 136.418 C 114.980 136.575,115.886 136.751,116.875 136.809 C 117.865 136.867,118.594 137.046,118.494 137.207 C 118.395 137.368,118.728 137.500,119.235 137.500 C 119.742 137.500,120.393 137.720,120.682 137.988 C 121.110 138.385,121.147 138.367,120.881 137.891 C 120.617 137.420,120.664 137.393,121.116 137.756 C 121.426 138.004,122.031 138.268,122.461 138.342 C 122.891 138.416,123.476 138.698,123.762 138.968 C 124.048 139.239,124.428 139.370,124.608 139.259 C 124.787 139.148,124.992 139.233,125.064 139.447 C 125.136 139.662,125.649 139.874,126.203 139.920 C 126.757 139.966,127.372 140.194,127.570 140.427 C 128.063 141.008,128.195 141.797,127.799 141.797 C 127.620 141.797,127.464 142.017,127.451 142.285 C 127.352 144.368,127.141 145.703,126.911 145.703 C 126.365 145.703,126.488 157.029,127.035 157.062 C 127.419 157.086,127.412 157.143,127.007 157.305 C 126.557 157.483,126.557 157.569,127.007 157.854 C 127.429 158.121,127.433 158.192,127.028 158.197 C 126.746 158.200,126.609 158.353,126.722 158.536 C 126.835 158.719,126.676 159.203,126.367 159.610 C 126.045 160.035,125.801 160.143,125.794 159.863 C 125.787 159.595,125.444 159.375,125.033 159.375 C 124.621 159.375,124.225 159.216,124.154 159.022 C 124.082 158.827,123.584 158.608,123.047 158.533 C 122.510 158.459,121.836 158.177,121.551 157.907 C 121.265 157.636,120.884 157.505,120.705 157.616 C 120.526 157.727,120.320 157.657,120.248 157.462 C 120.176 157.266,119.678 157.045,119.141 156.971 C 118.604 156.897,118.076 156.722,117.969 156.583 C 117.861 156.444,117.334 156.268,116.797 156.193 C 116.260 156.117,115.732 155.941,115.625 155.802 C 115.518 155.663,114.990 155.487,114.453 155.411 C 113.916 155.335,113.384 155.151,113.271 155.000 C 113.157 154.850,112.190 154.646,111.122 154.546 C 110.054 154.447,109.180 154.335,109.180 154.297 C 109.180 153.673,98.118 153.688,97.363 154.314 C 97.310 154.358,97.134 154.431,96.973 154.476 C 94.683 155.113,93.039 156.559,92.361 158.531 C 91.844 160.035,91.987 163.012,92.586 163.216 C 92.796 163.288,92.969 163.544,92.969 163.786 C 92.969 164.401,95.753 167.188,96.368 167.188 C 96.647 167.188,96.875 167.334,96.875 167.512 C 96.875 167.691,97.358 168.079,97.949 168.374 C 98.540 168.670,99.331 169.166,99.707 169.477 C 100.083 169.788,100.391 169.901,100.391 169.727 C 100.391 169.553,100.742 169.728,101.172 170.117 C 101.602 170.506,101.953 170.682,101.953 170.508 C 101.953 170.334,102.305 170.510,102.734 170.898 C 103.164 171.287,103.518 171.446,103.522 171.252 C 103.525 171.058,103.657 171.074,103.815 171.289 C 104.398 172.083,105.660 172.923,105.281 172.266 C 105.070 171.899,105.262 171.959,105.792 172.424 C 106.259 172.833,106.641 173.040,106.641 172.884 C 106.641 172.728,106.918 172.878,107.258 173.218 C 107.598 173.557,108.017 173.748,108.190 173.641 C 108.364 173.534,108.721 173.706,108.984 174.023 C 109.248 174.341,109.619 174.504,109.810 174.387 C 110.000 174.269,110.156 174.359,110.156 174.586 C 110.156 174.814,110.486 175.000,110.890 175.000 C 111.293 175.000,111.840 175.262,112.106 175.582 C 112.371 175.902,112.712 176.087,112.864 175.993 C 113.015 175.900,113.386 176.165,113.687 176.583 C 114.286 177.415,115.063 177.644,114.609 176.855 C 114.454 176.587,114.762 176.763,115.294 177.246 C 115.826 177.729,116.448 178.125,116.677 178.125 C 116.905 178.125,117.314 178.393,117.586 178.720 C 117.858 179.048,118.162 179.234,118.261 179.135 C 118.361 179.035,118.874 179.386,119.403 179.914 C 119.931 180.442,120.555 180.756,120.789 180.611 C 121.043 180.454,121.103 180.529,120.936 180.799 C 120.782 181.047,120.856 181.250,121.099 181.250 C 121.341 181.250,121.805 181.515,122.130 181.840 C 122.454 182.164,122.885 182.326,123.088 182.201 C 123.291 182.076,123.409 182.206,123.350 182.490 C 123.290 182.775,123.475 182.960,123.760 182.900 C 124.044 182.841,124.183 182.945,124.069 183.130 C 123.955 183.315,124.425 184.079,125.114 184.829 C 125.803 185.579,126.422 186.432,126.489 186.724 C 126.556 187.016,126.908 187.530,127.270 187.866 C 127.633 188.202,127.988 188.739,128.059 189.059 C 128.130 189.379,128.305 189.731,128.449 189.840 C 128.593 189.950,128.773 190.479,128.849 191.016 C 128.925 191.553,129.100 192.080,129.239 192.188 C 129.378 192.295,129.554 192.822,129.630 193.359 C 129.706 193.896,129.970 194.465,130.216 194.623 C 130.520 194.817,130.475 194.914,130.078 194.922 C 129.688 194.930,129.639 195.030,129.933 195.221 C 130.409 195.531,130.590 205.078,130.119 205.078 C 129.976 205.078,129.822 205.510,129.779 206.037 C 129.660 207.468,129.524 207.984,129.201 208.225 C 129.041 208.344,128.871 208.916,128.823 209.495 C 128.775 210.073,128.598 210.547,128.430 210.547 C 128.262 210.547,128.125 210.898,128.125 211.328 C 128.125 211.758,127.949 212.109,127.734 212.109 C 127.520 212.109,127.344 212.292,127.344 212.515 C 127.344 213.039,125.145 216.291,123.624 218.017 C 121.831 220.051,117.239 223.546,114.968 224.606 C 113.854 225.125,113.020 225.675,113.114 225.827 C 113.208 225.979,112.977 226.053,112.600 225.992 C 112.223 225.931,111.738 226.003,111.523 226.152 C 110.971 226.534,107.910 227.474,107.219 227.474 C 106.901 227.474,106.641 227.631,106.641 227.823 C 106.641 228.014,106.509 228.093,106.348 227.999 C 106.187 227.904,105.615 228.006,105.078 228.226 C 103.944 228.690,102.361 228.949,100.293 229.009 C 99.487 229.032,98.828 229.152,98.828 229.275 C 98.828 229.399,96.455 229.499,93.555 229.499 C 90.654 229.499,88.281 229.399,88.281 229.276 C 88.281 229.153,87.461 229.010,86.460 228.958 C 84.079 228.835,83.843 228.784,83.502 228.320 C 83.333 228.090,83.210 228.171,83.203 228.516 C 83.195 228.926,83.103 228.963,82.899 228.642 C 82.738 228.389,81.818 228.125,80.854 228.056 C 79.890 227.986,79.006 227.802,78.889 227.646 C 78.772 227.491,78.069 227.315,77.327 227.256 C 76.584 227.197,75.755 226.939,75.484 226.683 C 75.213 226.428,74.637 226.287,74.204 226.370 C 73.771 226.453,73.520 226.355,73.645 226.151 C 73.841 225.835,73.319 225.693,72.407 225.815 C 72.270 225.833,72.040 225.658,71.897 225.426 C 71.753 225.194,71.175 224.966,70.612 224.919 C 70.048 224.872,69.673 224.696,69.778 224.527 C 69.882 224.357,69.694 224.219,69.359 224.219 C 69.024 224.219,68.736 223.999,68.719 223.730 C 68.695 223.344,68.647 223.343,68.492 223.727 C 68.344 224.094,68.154 224.069,67.711 223.626 C 67.388 223.303,66.999 223.117,66.846 223.212 C 66.693 223.306,66.527 222.838,66.476 222.171 C 66.425 221.504,66.608 220.816,66.883 220.642 C 67.268 220.398,67.248 220.322,66.797 220.313 C 66.296 220.302,66.292 220.249,66.769 219.947 C 67.222 219.661,67.333 218.089,67.355 211.652 C 67.377 205.371,67.489 203.733,67.889 203.814 C 68.167 203.871,68.813 203.953,69.325 203.995 C 69.837 204.037,70.171 204.210,70.066 204.380 C 69.961 204.549,70.074 204.688,70.317 204.688 C 70.560 204.688,71.007 204.936,71.311 205.240 C 71.615 205.543,72.170 205.747,72.545 205.692 C 72.919 205.637,73.463 205.830,73.754 206.120 C 74.044 206.410,74.428 206.557,74.608 206.446 C 74.787 206.336,74.992 206.420,75.064 206.635 C 75.136 206.849,75.666 207.063,76.241 207.111 C 76.817 207.158,77.202 207.335,77.097 207.505 C 76.934 207.769,77.516 207.894,78.374 207.779 C 78.511 207.761,78.731 207.919,78.863 208.131 C 78.994 208.342,79.717 208.574,80.469 208.645 C 81.221 208.716,82.246 208.980,82.747 209.231 C 83.248 209.482,83.952 209.642,84.310 209.586 C 84.668 209.531,85.061 209.639,85.183 209.827 C 85.305 210.015,86.404 210.210,87.624 210.260 C 88.844 210.310,89.846 210.527,89.849 210.742 C 89.853 210.957,90.026 210.869,90.234 210.547 C 90.443 210.225,90.616 210.141,90.619 210.360 C 90.622 210.584,91.574 210.760,92.773 210.760 C 93.955 210.760,94.922 210.668,94.922 210.556 C 94.922 210.443,95.757 210.304,96.778 210.246 C 97.798 210.188,98.691 209.968,98.763 209.758 C 98.835 209.547,99.230 209.375,99.642 209.375 C 100.054 209.375,100.391 209.199,100.391 208.984 C 100.391 208.770,100.633 208.594,100.930 208.594 C 101.610 208.594,103.906 206.276,103.906 205.590 C 103.906 205.308,104.082 205.078,104.297 205.078 C 104.512 205.078,104.688 204.111,104.688 202.930 C 104.688 201.678,104.515 200.781,104.274 200.781 C 104.046 200.781,103.960 200.620,104.082 200.422 C 104.204 200.225,104.032 199.791,103.701 199.460 C 103.369 199.128,103.059 198.718,103.013 198.549 C 102.967 198.380,102.798 198.286,102.637 198.340 C 102.476 198.394,102.388 198.232,102.441 197.981 C 102.495 197.730,102.137 197.315,101.646 197.059 C 101.154 196.803,100.319 196.186,99.790 195.689 C 99.261 195.192,98.828 194.931,98.828 195.109 C 98.828 195.287,98.500 195.054,98.099 194.591 C 97.698 194.128,97.097 193.750,96.764 193.750 C 96.431 193.750,96.097 193.565,96.022 193.338 C 95.946 193.112,95.598 192.884,95.247 192.833 C 94.897 192.781,94.329 192.506,93.985 192.220 C 93.641 191.935,93.359 191.823,93.359 191.972 C 93.359 192.121,93.082 191.965,92.742 191.626 C 92.402 191.286,91.978 191.099,91.799 191.210 C 91.620 191.321,91.414 191.247,91.342 191.047 C 91.270 190.847,90.947 190.626,90.625 190.557 C 90.303 190.487,89.950 190.312,89.840 190.168 C 89.731 190.024,89.383 189.848,89.068 189.777 C 88.753 189.706,88.257 189.427,87.966 189.157 C 87.675 188.886,87.299 188.750,87.130 188.854 C 86.961 188.959,86.509 188.697,86.124 188.272 C 85.740 187.847,85.189 187.500,84.900 187.500 C 84.611 187.500,84.375 187.324,84.375 187.109 C 84.375 186.895,84.109 186.719,83.784 186.719 C 83.179 186.719,81.603 185.950,81.246 185.481 C 81.137 185.337,80.789 185.161,80.474 185.090 C 80.159 185.019,79.663 184.740,79.372 184.469 C 79.081 184.199,78.677 184.080,78.474 184.205 C 78.272 184.330,78.154 184.288,78.213 184.111 C 78.272 183.934,78.185 183.749,78.019 183.700 C 77.854 183.651,77.251 183.177,76.679 182.647 C 76.107 182.116,75.491 181.774,75.310 181.886 C 75.129 181.998,75.029 181.857,75.088 181.572 C 75.147 181.287,74.976 181.099,74.707 181.152 C 74.438 181.206,74.263 181.030,74.316 180.762 C 74.370 180.493,74.194 180.317,73.926 180.371 C 73.657 180.425,73.481 180.249,73.535 179.980 C 73.589 179.712,73.413 179.536,73.145 179.590 C 72.876 179.644,72.700 179.468,72.754 179.199 C 72.808 178.931,72.619 178.759,72.334 178.818 C 72.050 178.877,71.921 178.757,72.049 178.551 C 72.176 178.344,71.838 177.733,71.297 177.191 C 70.755 176.650,70.313 176.013,70.313 175.776 C 70.313 175.539,70.110 175.470,69.862 175.623 C 69.594 175.788,69.516 175.731,69.670 175.482 C 69.812 175.252,69.708 174.829,69.437 174.543 C 69.167 174.257,68.883 173.584,68.807 173.047 C 68.732 172.510,68.556 171.982,68.417 171.875 C 68.278 171.768,68.102 171.240,68.026 170.703 C 67.950 170.166,67.775 169.639,67.636 169.531 C 66.986 169.029,67.021 157.887,67.674 157.400 C 67.834 157.281,68.004 156.709,68.052 156.130 C 68.100 155.552,68.247 155.078,68.379 155.078 C 68.512 155.078,68.627 154.858,68.635 154.590 C 68.658 153.882,68.913 152.960,69.150 152.734 C 69.263 152.627,69.790 151.671,70.322 150.610 C 72.289 146.686,79.806 140.075,84.022 138.563 C 84.753 138.301,85.449 137.955,85.569 137.795 C 85.688 137.635,86.260 137.465,86.838 137.417 C 87.417 137.369,87.891 137.211,87.891 137.067 C 87.891 136.803,89.397 136.478,92.480 136.075 C 93.394 135.956,94.141 135.722,94.141 135.555 C 94.141 135.031,109.908 135.148,110.243 135.673 " stroke="none" fill="#0b1424" fill-rule="evenodd"></path><path id="path2" d="M207.129 133.472 C 207.505 133.571,208.120 133.571,208.496 133.472 C 208.872 133.374,208.564 133.294,207.813 133.294 C 207.061 133.294,206.753 133.374,207.129 133.472 M273.559 163.867 C 273.561 165.156,273.634 165.637,273.721 164.934 C 273.808 164.232,273.806 163.178,273.717 162.591 C 273.627 162.004,273.556 162.578,273.559 163.867 M165.366 211.719 C 165.366 213.330,165.435 213.989,165.519 213.184 C 165.603 212.378,165.603 211.060,165.519 210.254 C 165.435 209.448,165.366 210.107,165.366 211.719 M90.928 211.224 C 91.847 211.307,93.253 211.305,94.053 211.221 C 94.853 211.138,94.102 211.070,92.383 211.071 C 90.664 211.073,90.010 211.142,90.928 211.224 M297.178 211.224 C 298.097 211.307,299.503 211.305,300.303 211.221 C 301.103 211.138,300.352 211.070,298.633 211.071 C 296.914 211.073,296.260 211.142,297.178 211.224 M165.414 220.996 L 165.430 227.148 166.898 227.189 L 168.366 227.230 167.005 227.069 L 165.645 226.907 165.522 220.875 L 165.399 214.843 165.414 220.996 " stroke="none" fill="#673419" fill-rule="evenodd"></path><path id="path3" d="M126.263 155.078 C 126.263 155.830,126.343 156.138,126.441 155.762 C 126.539 155.386,126.539 154.771,126.441 154.395 C 126.343 154.019,126.263 154.326,126.263 155.078 M170.996 166.291 C 171.479 166.384,172.271 166.384,172.754 166.291 C 173.237 166.198,172.842 166.122,171.875 166.122 C 170.908 166.122,170.513 166.198,170.996 166.291 M177.462 166.307 C 179.568 166.377,182.907 166.377,184.884 166.306 C 186.860 166.236,185.137 166.178,181.055 166.178 C 176.973 166.179,175.356 166.237,177.462 166.307 M328.125 182.153 C 328.125 182.221,328.696 182.792,329.395 183.423 L 330.664 184.570 329.517 183.301 C 328.447 182.117,328.125 181.852,328.125 182.153 " stroke="none" fill="#361b0b" fill-rule="evenodd"></path><path id="path4" d="M97.759 135.827 C 98.353 135.917,99.232 135.915,99.712 135.822 C 100.193 135.729,99.707 135.656,98.633 135.659 C 97.559 135.662,97.166 135.737,97.759 135.827 M104.791 135.827 C 105.384 135.917,106.263 135.915,106.744 135.822 C 107.224 135.729,106.738 135.656,105.664 135.659 C 104.590 135.662,104.197 135.737,104.791 135.827 M304.009 135.827 C 304.603 135.917,305.482 135.915,305.962 135.822 C 306.443 135.729,305.957 135.656,304.883 135.659 C 303.809 135.662,303.416 135.737,304.009 135.827 M311.041 135.827 C 311.634 135.917,312.513 135.915,312.994 135.822 C 313.474 135.729,312.988 135.656,311.914 135.659 C 310.840 135.662,310.447 135.737,311.041 135.827 M173.047 143.945 C 172.098 144.912,171.410 145.703,171.517 145.703 C 171.624 145.703,172.489 144.912,173.438 143.945 C 174.386 142.979,175.075 142.188,174.967 142.188 C 174.860 142.188,173.996 142.979,173.047 143.945 M125.920 152.148 C 125.919 154.082,125.985 154.922,126.067 154.016 C 126.149 153.109,126.150 151.527,126.069 150.500 C 125.988 149.473,125.921 150.215,125.920 152.148 M200.675 152.626 C 201.368 152.712,202.599 152.713,203.409 152.629 C 204.220 152.544,203.652 152.474,202.148 152.472 C 200.645 152.470,199.981 152.539,200.675 152.626 M299.389 155.957 L 298.242 157.227 299.512 156.079 C 300.210 155.448,300.781 154.877,300.781 154.810 C 300.781 154.508,300.459 154.774,299.389 155.957 M331.466 158.556 C 330.741 158.840,330.745 158.863,331.564 159.077 C 332.147 159.230,332.422 159.126,332.422 158.752 C 332.422 158.450,332.378 158.215,332.324 158.231 C 332.271 158.246,331.884 158.392,331.466 158.556 M125.195 158.983 C 126.213 159.422,126.563 159.444,126.563 159.070 C 126.563 158.902,126.079 158.737,125.488 158.705 C 124.561 158.653,124.521 158.691,125.195 158.983 M167.871 165.916 C 169.644 165.988,172.544 165.988,174.316 165.916 C 176.089 165.843,174.639 165.784,171.094 165.784 C 167.549 165.784,166.099 165.843,167.871 165.916 M180.362 165.907 C 181.056 165.993,182.286 165.995,183.097 165.910 C 183.907 165.826,183.340 165.755,181.836 165.753 C 180.332 165.751,179.669 165.821,180.362 165.907 M278.713 178.127 C 279.103 178.558,279.503 178.830,279.601 178.732 C 279.813 178.520,278.699 177.344,278.288 177.344 C 278.132 177.344,278.323 177.696,278.713 178.127 M73.828 179.492 C 74.557 180.244,75.300 180.859,75.480 180.859 C 75.660 180.859,75.192 180.244,74.440 179.492 C 73.688 178.740,72.945 178.125,72.788 178.125 C 72.631 178.125,73.099 178.740,73.828 179.492 M280.078 179.213 C 280.078 179.626,282.363 181.838,282.556 181.612 C 282.635 181.520,282.110 180.869,281.389 180.165 C 280.668 179.460,280.078 179.032,280.078 179.213 M229.858 184.473 L 228.711 185.742 229.980 184.595 C 230.679 183.964,231.250 183.393,231.250 183.325 C 231.250 183.024,230.928 183.289,229.858 184.473 M92.969 191.211 C 93.506 191.518,94.121 191.769,94.336 191.769 C 94.551 191.769,94.287 191.518,93.750 191.211 C 93.213 190.904,92.598 190.653,92.383 190.653 C 92.168 190.653,92.432 190.904,92.969 191.211 M102.734 197.461 C 104.015 198.782,104.297 199.001,104.297 198.674 C 104.297 198.370,102.024 196.094,101.720 196.094 C 101.549 196.094,102.006 196.709,102.734 197.461 M129.821 200.195 C 129.823 201.914,129.892 202.569,129.974 201.650 C 130.057 200.731,130.055 199.325,129.971 198.525 C 129.888 197.725,129.820 198.477,129.821 200.195 M105.190 202.539 C 105.193 203.613,105.269 204.006,105.358 203.413 C 105.448 202.819,105.446 201.940,105.353 201.459 C 105.260 200.979,105.187 201.465,105.190 202.539 M273.438 204.232 C 273.438 204.792,273.881 205.033,274.485 204.802 C 274.958 204.620,274.969 204.518,274.544 204.248 C 273.877 203.825,273.438 203.818,273.438 204.232 " stroke="none" fill="#964442" fill-rule="evenodd"></path><path id="path5" d="" stroke="none" fill="#181734" fill-rule="evenodd"></path><path id="path6" d="M96.973 135.426 C 97.349 135.524,97.964 135.524,98.340 135.426 C 98.716 135.327,98.408 135.247,97.656 135.247 C 96.904 135.247,96.597 135.327,96.973 135.426 M106.348 135.426 C 106.724 135.524,107.339 135.524,107.715 135.426 C 108.091 135.327,107.783 135.247,107.031 135.247 C 106.279 135.247,105.972 135.327,106.348 135.426 M303.223 135.426 C 303.599 135.524,304.214 135.524,304.590 135.426 C 304.966 135.327,304.658 135.247,303.906 135.247 C 303.154 135.247,302.847 135.327,303.223 135.426 M312.598 135.426 C 312.974 135.524,313.589 135.524,313.965 135.426 C 314.341 135.327,314.033 135.247,313.281 135.247 C 312.529 135.247,312.222 135.327,312.598 135.426 M287.282 140.061 C 286.005 140.826,284.609 141.803,284.180 142.232 C 283.750 142.662,284.557 142.256,285.974 141.331 C 287.390 140.406,288.884 139.439,289.294 139.183 C 291.099 138.056,289.373 138.809,287.282 140.061 M332.572 151.953 C 332.572 154.639,332.635 155.737,332.711 154.395 C 332.787 153.052,332.787 150.854,332.711 149.512 C 332.635 148.169,332.572 149.268,332.572 151.953 M126.300 151.367 C 126.302 152.871,126.372 153.438,126.457 152.628 C 126.542 151.818,126.540 150.587,126.454 149.894 C 126.368 149.200,126.298 149.863,126.300 151.367 M241.928 160.938 C 241.928 162.549,241.997 163.208,242.081 162.402 C 242.166 161.597,242.166 160.278,242.081 159.473 C 241.997 158.667,241.928 159.326,241.928 160.938 M206.620 175.293 L 205.273 176.758 206.738 175.412 C 208.102 174.159,208.383 173.828,208.084 173.828 C 208.019 173.828,207.360 174.487,206.620 175.293 M202.800 178.296 C 199.632 180.850,199.057 181.631,202.049 179.315 C 204.289 177.581,205.478 176.484,205.004 176.589 C 204.937 176.604,203.945 177.372,202.800 178.296 M233.424 181.165 C 231.707 183.109,231.538 183.384,232.773 182.227 C 234.237 180.855,236.212 178.493,235.866 178.528 C 235.798 178.535,234.699 179.722,233.424 181.165 M279.688 179.883 C 280.416 180.635,281.101 181.250,281.208 181.250 C 281.315 181.250,280.807 180.635,280.078 179.883 C 279.349 179.131,278.665 178.516,278.558 178.516 C 278.450 178.516,278.959 179.131,279.688 179.883 M228.906 185.742 C 227.957 186.709,227.269 187.500,227.376 187.500 C 227.484 187.500,228.348 186.709,229.297 185.742 C 230.246 184.775,230.934 183.984,230.827 183.984 C 230.719 183.984,229.855 184.775,228.906 185.742 M187.695 190.277 C 184.722 192.679,184.244 193.346,187.036 191.197 C 189.193 189.537,190.170 188.640,189.769 188.686 C 189.703 188.693,188.770 189.410,187.695 190.277 M182.798 194.169 L 181.445 195.369 182.910 194.318 C 184.205 193.389,184.626 192.969,184.263 192.969 C 184.201 192.969,183.542 193.509,182.798 194.169 M308.594 197.852 C 309.323 198.604,310.007 199.219,310.114 199.219 C 310.222 199.219,309.713 198.604,308.984 197.852 C 308.256 197.100,307.571 196.484,307.464 196.484 C 307.357 196.484,307.865 197.100,308.594 197.852 M130.215 200.391 C 130.215 202.217,130.282 202.964,130.364 202.051 C 130.446 201.138,130.446 199.644,130.364 198.730 C 130.282 197.817,130.215 198.564,130.215 200.391 M175.781 199.657 C 174.420 200.850,174.419 200.852,175.672 200.019 C 176.364 199.559,177.033 199.015,177.160 198.810 C 177.536 198.200,177.224 198.392,175.781 199.657 M211.419 199.642 C 210.718 200.268,210.279 200.776,210.443 200.769 C 210.846 200.752,213.018 198.826,212.838 198.645 C 212.759 198.566,212.121 199.015,211.419 199.642 M336.427 199.805 C 336.431 200.664,336.511 200.970,336.604 200.484 C 336.698 199.998,336.694 199.295,336.597 198.921 C 336.499 198.548,336.422 198.945,336.427 199.805 M203.989 205.459 C 203.151 206.158,203.144 206.200,203.875 206.145 C 204.303 206.113,204.575 206.007,204.479 205.911 C 204.382 205.815,204.499 205.500,204.739 205.212 C 205.346 204.480,205.043 204.580,203.989 205.459 M103.906 205.536 C 103.906 205.787,103.599 206.356,103.223 206.798 C 102.568 207.569,102.569 207.580,103.244 207.057 C 104.174 206.335,104.852 205.078,104.311 205.078 C 104.088 205.078,103.906 205.284,103.906 205.536 M239.453 216.718 L 239.647 227.148 239.752 217.018 C 239.810 211.447,239.722 206.753,239.558 206.588 C 239.393 206.423,239.345 210.982,239.453 216.718 M308.552 207.532 C 307.992 208.008,307.201 208.621,306.795 208.892 C 306.360 209.182,306.539 209.158,307.227 208.835 C 307.873 208.531,308.735 207.914,309.143 207.462 C 310.102 206.402,309.843 206.433,308.552 207.532 M273.528 209.375 C 273.528 210.127,273.609 210.435,273.707 210.059 C 273.805 209.683,273.805 209.067,273.707 208.691 C 273.609 208.315,273.528 208.623,273.528 209.375 M273.563 214.844 C 273.563 216.240,273.633 216.812,273.720 216.113 C 273.807 215.415,273.807 214.272,273.720 213.574 C 273.633 212.876,273.563 213.447,273.563 214.844 M122.867 218.281 C 121.371 219.935,120.655 220.850,121.274 220.313 C 122.964 218.848,126.178 215.179,125.706 215.253 C 125.640 215.264,124.362 216.626,122.867 218.281 M67.278 217.188 C 67.278 217.939,67.359 218.247,67.457 217.871 C 67.555 217.495,67.555 216.880,67.457 216.504 C 67.359 216.128,67.278 216.436,67.278 217.188 M328.693 218.848 L 327.148 220.508 328.809 218.964 C 330.353 217.528,330.648 217.188,330.353 217.188 C 330.289 217.188,329.542 217.935,328.693 218.848 " stroke="none" fill="#161707" fill-rule="evenodd"></path><path id="path7" d="M203.619 206.530 C 204.212 206.620,205.091 206.618,205.572 206.525 C 206.052 206.432,205.566 206.359,204.492 206.362 C 203.418 206.365,203.025 206.441,203.619 206.530 " stroke="none" fill="#403404" fill-rule="evenodd"></path><path id="path8" d="" stroke="none" fill="#0f2404" fill-rule="evenodd"></path></g></svg>